<svg width="297" height="200" viewBox="0 0 297 200" version="1.1" xmlns="http://www.w3.org/2000/svg" xmlns:xlink="http://www.w3.org/1999/xlink">
<title>Group</title>
<desc>Created using Figma</desc>
<g id="Canvas" transform="translate(183 65)">
<g id="Group">
<g id="Vector">
<use xlink:href="#path0_fill" transform="translate(-183 -65)" fill="url(#paint0_radial)"/>
</g>
<g id="Shoshin">
<use xlink:href="#path1_fill" transform="translate(-108 3)" fill="#4F4F4F"/>
</g>
</g>
</g>
<defs>
<radialGradient id="paint0_radial" cx="0.5" cy="0.5" r="0.5" gradientUnits="userSpaceOnUse" gradientTransform="matrix(-188 250 -345 -259.44 366.5 104.72)">
<stop offset="0.143646" stop-color="#ED1002" stop-opacity="0.69"/>
<stop offset="1" stop-color="#F74A4A" stop-opacity="0"/>
</radialGradient>
<path id="path0_fill" fill-rule="evenodd" d="M 143.441 170.325C 157.163 161.563 165.167 153.941 161.5 159.5C 157.833 165.059 158 163 153 168.5L 149.5 172C 149.5 172 141.536 179.087 138.105 179.467C 134.674 179.847 141.914 179.087 136.961 181.374C 132.005 183.658 95.752 200.007 37.0941 157.372C 53.4872 184.802 82.454 196.993 106.849 197.373C 106.849 197.373 99.223 197.373 103.418 198.135C 107.612 198.896 101.512 204.609 65.6808 191.278C 67.2094 194.705 67.5895 195.847 71.7828 198.135C 71.7828 198.135 24.8964 182.132 8.50955 134.895C 8.88961 140.608 9.26968 147.086 9.26968 147.086C 9.26968 147.086 -14.3657 105.178 13.8451 53.3678C 42.0517 1.5577 104.183 -0.345792 112.567 0.0340683C 120.954 0.413929 167.834 11.0815 178.507 22.131C 189.183 33.1764 173.174 25.9401 173.174 25.9401C 173.174 25.9401 167.834 28.9874 176.605 33.5562C 185.369 38.1314 194.898 53.3678 187.654 47.6531C 180.414 41.9405 191.085 54.5115 192.229 55.2734C 193.372 56.0352 176.22 47.6531 180.796 52.6059C 185.369 57.5567 205.189 79.2738 198.711 85.7525C 192.229 92.2269 189.941 74.321 188.798 73.1793C 187.654 72.0334 190.709 99.4652 188.798 104.034C 186.892 108.607 187.274 93.7526 183.465 89.1796C 179.654 84.6087 178.507 84.9885 175.838 84.9885C 173.174 84.9885 165.931 77.7523 165.167 73.5591C 164.405 69.3681 161.433 65.9367 158 62.5096C 154.571 59.0804 152.971 62.1297 146.492 62.5096C 140.012 62.8916 135.055 47.6531 124 47.6531C 112.947 47.6531 111.801 48.7989 102.274 52.9879C 92.7472 57.179 75.2117 62.1297 73.6852 62.5096C 72.1607 62.8916 89.6941 52.9879 92.365 51.4622C 95.0318 49.9406 50.8163 61.3679 43.5741 78.8919C 36.3298 96.42 29.854 126.513 54.6295 153.941C 79.4051 181.374 123.618 184.038 143.441 170.325Z"/>
<path id="path1_fill" d="M 36.288 29.68L 33.48 36.088C 31.512 35.368 29.544 34.792 27.576 34.36C 25.656 33.928 23.808 33.712 22.032 33.712C 19.008 33.712 16.584 34.336 14.76 35.584C 12.984 36.832 12.096 38.416 12.096 40.336C 12.096 41.968 12.744 43.288 14.04 44.296C 15.336 45.256 16.944 46.144 18.864 46.96C 20.784 47.728 22.872 48.52 25.128 49.336C 27.384 50.104 29.472 51.112 31.392 52.36C 33.312 53.608 34.92 55.192 36.216 57.112C 37.512 58.984 38.16 61.408 38.16 64.384C 38.16 66.688 37.728 68.776 36.864 70.648C 36.048 72.472 34.8 74.056 33.12 75.4C 31.488 76.744 29.424 77.776 26.928 78.496C 24.48 79.216 21.6 79.576 18.288 79.576C 16.176 79.576 14.256 79.432 12.528 79.144C 10.848 78.856 9.312 78.496 7.92 78.064C 6.576 77.584 5.376 77.08 4.32 76.552C 3.312 76.024 2.448 75.544 1.728 75.112L 5.184 68.272C 7.104 69.376 9.24 70.264 11.592 70.936C 13.944 71.608 16.08 71.944 18 71.944C 18.96 71.944 20.136 71.824 21.528 71.584C 22.968 71.344 24.336 70.936 25.632 70.36C 26.928 69.736 28.032 68.92 28.944 67.912C 29.904 66.904 30.384 65.632 30.384 64.096C 30.384 62.704 30 61.528 29.232 60.568C 28.512 59.56 27.528 58.696 26.28 57.976C 25.08 57.208 23.688 56.536 22.104 55.96C 20.568 55.336 18.984 54.712 17.352 54.088C 15.72 53.416 14.112 52.72 12.528 52C 10.992 51.28 9.6 50.416 8.352 49.408C 7.152 48.352 6.168 47.152 5.4 45.808C 4.68 44.416 4.32 42.76 4.32 40.84C 4.32 39.064 4.68 37.312 5.4 35.584C 6.12 33.856 7.2 32.32 8.64 30.976C 10.08 29.632 11.856 28.552 13.968 27.736C 16.128 26.92 18.624 26.512 21.456 26.512C 23.184 26.512 24.864 26.656 26.496 26.944C 28.176 27.232 29.688 27.568 31.032 27.952C 32.376 28.288 33.504 28.624 34.416 28.96C 35.376 29.296 36 29.536 36.288 29.68ZM 44.3981 23.056L 50.5181 23.056L 50.5181 56.176C 51.5741 53.776 53.0621 51.856 54.9821 50.416C 56.9021 48.928 59.3741 48.16 62.3981 48.112C 65.4701 48.064 67.9181 48.88 69.7421 50.56C 71.6141 52.24 72.5981 54.424 72.6941 57.112L 72.6941 79L 66.5021 79L 66.5021 59.92C 66.4061 58.384 65.8781 57.088 64.9181 56.032C 63.9581 54.928 62.4461 54.328 60.3821 54.232C 58.9421 54.232 57.6221 54.496 56.4221 55.024C 55.2221 55.504 54.1901 56.176 53.3261 57.04C 52.4621 57.904 51.7661 58.936 51.2381 60.136C 50.7581 61.336 50.5181 62.656 50.5181 64.096L 50.5181 79L 44.3981 79L 44.3981 23.056ZM 78.9429 63.88C 78.9429 61.72 79.3509 59.68 80.1669 57.76C 81.0309 55.84 82.1829 54.184 83.6229 52.792C 85.0629 51.352 86.7429 50.224 88.6629 49.408C 90.6309 48.544 92.7429 48.112 94.9989 48.112C 97.2549 48.112 99.3429 48.544 101.263 49.408C 103.231 50.224 104.911 51.352 106.303 52.792C 107.743 54.184 108.847 55.84 109.615 57.76C 110.431 59.68 110.839 61.72 110.839 63.88C 110.839 66.04 110.431 68.08 109.615 70C 108.847 71.92 107.743 73.6 106.303 75.04C 104.911 76.48 103.231 77.632 101.263 78.496C 99.3429 79.312 97.2309 79.72 94.9269 79.72C 92.7189 79.72 90.6309 79.336 88.6629 78.568C 86.7429 77.8 85.0629 76.72 83.6229 75.328C 82.1829 73.936 81.0309 72.28 80.1669 70.36C 79.3509 68.392 78.9429 66.232 78.9429 63.88ZM 85.0629 63.952C 85.0629 65.296 85.3029 66.568 85.7829 67.768C 86.3109 68.92 87.0069 69.952 87.8709 70.864C 88.7829 71.728 89.8149 72.424 90.9669 72.952C 92.1669 73.432 93.4389 73.672 94.7829 73.672C 96.1269 73.672 97.3989 73.432 98.5989 72.952C 99.7989 72.424 100.831 71.728 101.695 70.864C 102.607 69.952 103.327 68.92 103.855 67.768C 104.383 66.568 104.647 65.296 104.647 63.952C 104.647 62.608 104.383 61.336 103.855 60.136C 103.327 58.936 102.607 57.904 101.695 57.04C 100.831 56.128 99.7989 55.432 98.5989 54.952C 97.3989 54.424 96.1269 54.16 94.7829 54.16C 93.4389 54.16 92.1669 54.424 90.9669 54.952C 89.8149 55.432 88.7829 56.128 87.8709 57.04C 87.0069 57.904 86.3109 58.936 85.7829 60.136C 85.3029 61.336 85.0629 62.608 85.0629 63.952ZM 134.159 51.568L 130.918 55.888C 130.87 55.84 130.702 55.72 130.414 55.528C 130.126 55.336 129.742 55.144 129.262 54.952C 128.831 54.76 128.303 54.592 127.678 54.448C 127.102 54.256 126.503 54.16 125.879 54.16C 125.062 54.16 124.246 54.352 123.43 54.736C 122.663 55.12 122.279 55.84 122.279 56.896C 122.279 57.808 122.591 58.552 123.215 59.128C 123.887 59.704 124.702 60.232 125.662 60.712C 126.622 61.144 127.654 61.6 128.758 62.08C 129.91 62.56 130.966 63.16 131.926 63.88C 132.887 64.552 133.678 65.416 134.302 66.472C 134.974 67.48 135.31 68.776 135.31 70.36C 135.31 73.048 134.374 75.28 132.503 77.056C 130.678 78.784 128.158 79.648 124.943 79.648C 123.071 79.648 121.223 79.336 119.398 78.712C 117.622 78.04 116.182 77.08 115.079 75.832C 115.415 75.496 115.775 75.064 116.159 74.536C 116.591 74.008 116.999 73.504 117.382 73.024C 117.814 72.544 118.15 72.16 118.391 71.872C 118.678 71.536 118.846 71.368 118.895 71.368C 118.895 71.416 119.062 71.56 119.398 71.8C 119.783 72.04 120.263 72.304 120.839 72.592C 121.414 72.832 122.062 73.072 122.783 73.312C 123.503 73.504 124.223 73.6 124.943 73.6C 126.094 73.6 127.078 73.312 127.895 72.736C 128.711 72.16 129.119 71.392 129.119 70.432C 129.119 69.568 128.783 68.896 128.111 68.416C 127.486 67.888 126.694 67.408 125.734 66.976C 124.775 66.544 123.719 66.112 122.566 65.68C 121.415 65.2 120.359 64.6 119.398 63.88C 118.439 63.16 117.623 62.272 116.951 61.216C 116.327 60.112 116.015 58.696 116.015 56.968C 116.015 55.336 116.303 53.968 116.878 52.864C 117.502 51.76 118.271 50.872 119.183 50.2C 120.142 49.48 121.198 48.976 122.35 48.688C 123.502 48.352 124.606 48.184 125.662 48.184C 127.054 48.184 128.542 48.472 130.127 49.048C 131.711 49.624 133.055 50.464 134.159 51.568ZM 141.851 23.056L 147.971 23.056L 147.971 56.176C 149.027 53.776 150.515 51.856 152.435 50.416C 154.355 48.928 156.827 48.16 159.851 48.112C 162.923 48.064 165.371 48.88 167.195 50.56C 169.067 52.24 170.051 54.424 170.147 57.112L 170.147 79L 163.955 79L 163.955 59.92C 163.859 58.384 163.331 57.088 162.371 56.032C 161.411 54.928 159.899 54.328 157.835 54.232C 156.395 54.232 155.075 54.496 153.875 55.024C 152.675 55.504 151.643 56.176 150.779 57.04C 149.915 57.904 149.219 58.936 148.691 60.136C 148.211 61.336 147.971 62.656 147.971 64.096L 147.971 79L 141.851 79L 141.851 23.056ZM 177.692 37.384C 177.692 36.232 178.1 35.272 178.916 34.504C 179.78 33.736 180.692 33.352 181.652 33.352C 182.612 33.352 183.5 33.736 184.316 34.504C 185.132 35.272 185.54 36.232 185.54 37.384C 185.54 38.536 185.132 39.496 184.316 40.264C 183.5 40.984 182.612 41.344 181.652 41.344C 180.692 41.344 179.78 40.984 178.916 40.264C 178.1 39.496 177.692 38.536 177.692 37.384ZM 184.604 79L 178.484 79L 178.484 48.904L 184.604 48.904L 184.604 79ZM 193.25 48.904L 198.65 48.904C 198.746 50.392 198.818 51.76 198.866 53.008C 198.962 54.208 199.058 55.408 199.154 56.608C 200.258 54.016 201.818 51.952 203.834 50.416C 205.898 48.88 208.418 48.112 211.394 48.112C 214.418 48.112 216.842 48.952 218.666 50.632C 220.49 52.312 221.45 54.472 221.546 57.112L 221.546 79L 215.354 79L 215.354 59.92C 215.258 58.384 214.73 57.088 213.77 56.032C 212.81 54.928 211.298 54.328 209.234 54.232C 207.794 54.232 206.474 54.496 205.274 55.024C 204.074 55.504 203.042 56.176 202.178 57.04C 201.314 57.904 200.618 58.936 200.09 60.136C 199.61 61.336 199.37 62.656 199.37 64.096L 199.37 79L 193.25 79L 193.25 48.904Z"/>
</defs>
</svg>
