<svg width="318" height="200" viewBox="0 0 318 200" version="1.1" xmlns="http://www.w3.org/2000/svg" xmlns:xlink="http://www.w3.org/1999/xlink">
<title>Group</title>
<desc>Created using Figma</desc>
<g id="Canvas" transform="translate(183 30)">
<g id="Group">
<g id="Vector">
<use xlink:href="#path0_fill" transform="translate(-183 -30)" fill="url(#paint0_radial)"/>
</g>
<g id="Shoshin">
<use xlink:href="#path1_fill" transform="translate(-124 46)" fill="#4F4F4F"/>
</g>
</g>
</g>
<defs>
<radialGradient id="paint0_radial" cx="0.5" cy="0.5" r="0.5" gradientUnits="userSpaceOnUse" gradientTransform="matrix(1.52588e-05 200 -200 1.52588e-05 200 -7.62939e-06)">
<stop offset="0.237569" stop-color="#092CE8" stop-opacity="0"/>
<stop offset="1" stop-color="#00007D"/>
</radialGradient>
<path id="path0_fill" fill-rule="evenodd" d="M 143.441 170.325C 157.163 161.563 165.167 153.941 161.5 159.5C 157.833 165.059 158 163 153 168.5L 149.5 172C 149.5 172 141.536 179.087 138.105 179.467C 134.674 179.847 141.914 179.087 136.961 181.374C 132.005 183.658 95.752 200.007 37.0941 157.372C 53.4872 184.802 82.454 196.993 106.849 197.373C 106.849 197.373 99.223 197.373 103.418 198.135C 107.612 198.896 101.512 204.609 65.6808 191.278C 67.2094 194.705 67.5895 195.847 71.7828 198.135C 71.7828 198.135 24.8964 182.132 8.50955 134.895C 8.88961 140.608 9.26968 147.086 9.26968 147.086C 9.26968 147.086 -14.3657 105.178 13.8451 53.3678C 42.0517 1.5577 104.183 -0.345792 112.567 0.0340683C 120.954 0.413929 167.834 11.0815 178.507 22.131C 189.183 33.1764 173.174 25.9401 173.174 25.9401C 173.174 25.9401 167.834 28.9874 176.605 33.5562C 185.369 38.1314 194.898 53.3678 187.654 47.6531C 180.414 41.9405 191.085 54.5115 192.229 55.2734C 193.372 56.0352 176.22 47.6531 180.796 52.6059C 185.369 57.5567 205.189 79.2738 198.711 85.7525C 192.229 92.2269 189.941 74.321 188.798 73.1793C 187.654 72.0334 190.709 99.4652 188.798 104.034C 186.892 108.607 187.274 93.7526 183.465 89.1796C 179.654 84.6087 178.507 84.9885 175.838 84.9885C 173.174 84.9885 165.931 77.7523 165.167 73.5591C 164.405 69.3681 161.433 65.9367 158 62.5096C 154.571 59.0804 152.971 62.1297 146.492 62.5096C 140.012 62.8916 135.055 47.6531 124 47.6531C 112.947 47.6531 111.801 48.7989 102.274 52.9879C 92.7472 57.179 75.2117 62.1297 73.6852 62.5096C 72.1607 62.8916 89.6941 52.9879 92.365 51.4622C 95.0317 49.9406 50.8163 61.3679 43.5741 78.8919C 36.3298 96.42 29.854 126.513 54.6295 153.941C 79.4051 181.374 123.618 184.038 143.441 170.325Z"/>
<path id="path1_fill" d="M 36.288 26.456C 34.848 24.824 32.928 23.504 30.528 22.496C 28.128 21.488 25.392 20.984 22.32 20.984C 17.808 20.984 14.52 21.848 12.456 23.576C 10.392 25.256 9.36 27.56 9.36 30.488C 9.36 32.024 9.624 33.296 10.152 34.304C 10.728 35.264 11.592 36.104 12.744 36.824C 13.896 37.544 15.36 38.168 17.136 38.696C 18.96 39.224 21.096 39.752 23.544 40.28C 26.28 40.856 28.728 41.504 30.888 42.224C 33.096 42.944 34.968 43.856 36.504 44.96C 38.04 46.016 39.216 47.312 40.032 48.848C 40.848 50.384 41.256 52.304 41.256 54.608C 41.256 56.96 40.8 59 39.888 60.728C 38.976 62.456 37.704 63.896 36.072 65.048C 34.44 66.2 32.496 67.064 30.24 67.64C 27.984 68.168 25.512 68.432 22.824 68.432C 14.904 68.432 8.064 65.96 2.304 61.016L 4.824 56.912C 5.736 57.872 6.816 58.784 8.064 59.648C 9.36 60.512 10.776 61.28 12.312 61.952C 13.896 62.576 15.576 63.08 17.352 63.464C 19.128 63.8 21 63.968 22.968 63.968C 27.048 63.968 30.216 63.248 32.472 61.808C 34.776 60.32 35.928 58.088 35.928 55.112C 35.928 53.528 35.592 52.208 34.92 51.152C 34.296 50.048 33.336 49.112 32.04 48.344C 30.744 47.528 29.136 46.832 27.216 46.256C 25.296 45.68 23.064 45.104 20.52 44.528C 17.832 43.904 15.48 43.256 13.464 42.584C 11.448 41.912 9.744 41.072 8.352 40.064C 6.96 39.056 5.904 37.856 5.184 36.464C 4.512 35.024 4.176 33.272 4.176 31.208C 4.176 28.856 4.608 26.768 5.472 24.944C 6.384 23.072 7.656 21.536 9.288 20.336C 10.92 19.088 12.84 18.152 15.048 17.528C 17.256 16.856 19.704 16.52 22.392 16.52C 25.8 16.52 28.824 17.048 31.464 18.104C 34.152 19.112 36.576 20.552 38.736 22.424L 36.288 26.456ZM 80.6704 68L 75.7744 68L 75.7744 47.048C 75.7744 42.776 75.0304 39.584 73.5424 37.472C 72.1024 35.36 69.9664 34.304 67.1344 34.304C 65.7424 34.304 64.3504 34.592 62.9584 35.168C 61.6144 35.696 60.3424 36.44 59.1424 37.4C 57.9424 38.36 56.8864 39.488 55.9744 40.784C 55.1104 42.08 54.4624 43.496 54.0304 45.032L 54.0304 68L 49.1344 68L 49.1344 15.44L 54.0304 15.44L 54.0304 38.984C 55.5184 36.152 57.5824 33.92 60.2224 32.288C 62.8624 30.656 65.7184 29.84 68.7904 29.84C 70.9504 29.84 72.7744 30.248 74.2624 31.064C 75.7504 31.832 76.9744 32.936 77.9344 34.376C 78.8944 35.768 79.5904 37.472 80.0224 39.488C 80.4544 41.456 80.6704 43.64 80.6704 46.04L 80.6704 68ZM 107.095 68.72C 104.359 68.72 101.863 68.216 99.6069 67.208C 97.3509 66.152 95.3829 64.736 93.7029 62.96C 92.0709 61.184 90.7989 59.12 89.8869 56.768C 88.9749 54.416 88.5189 51.944 88.5189 49.352C 88.5189 46.712 88.9749 44.216 89.8869 41.864C 90.8469 39.512 92.1429 37.448 93.7749 35.672C 95.4549 33.896 97.4229 32.48 99.6789 31.424C 101.935 30.368 104.407 29.84 107.095 29.84C 109.783 29.84 112.255 30.368 114.511 31.424C 116.815 32.48 118.783 33.896 120.415 35.672C 122.095 37.448 123.391 39.512 124.303 41.864C 125.263 44.216 125.743 46.712 125.743 49.352C 125.743 51.944 125.287 54.416 124.375 56.768C 123.463 59.12 122.167 61.184 120.487 62.96C 118.855 64.736 116.887 66.152 114.583 67.208C 112.327 68.216 109.831 68.72 107.095 68.72ZM 93.4869 49.424C 93.4869 51.536 93.8469 53.504 94.5669 55.328C 95.2869 57.104 96.2469 58.688 97.4469 60.08C 98.6949 61.424 100.135 62.48 101.767 63.248C 103.447 64.016 105.223 64.4 107.095 64.4C 108.967 64.4 110.719 64.016 112.351 63.248C 114.031 62.432 115.495 61.352 116.743 60.008C 117.991 58.616 118.975 57.008 119.695 55.184C 120.415 53.36 120.775 51.392 120.775 49.28C 120.775 47.216 120.415 45.272 119.695 43.448C 118.975 41.576 117.991 39.968 116.743 38.624C 115.495 37.232 114.031 36.152 112.351 35.384C 110.719 34.568 108.967 34.16 107.095 34.16C 105.223 34.16 103.471 34.568 101.839 35.384C 100.207 36.152 98.7669 37.232 97.5189 38.624C 96.2709 40.016 95.2869 41.648 94.5669 43.52C 93.8469 45.344 93.4869 47.312 93.4869 49.424ZM 146.387 68.72C 143.459 68.72 140.603 68.24 137.819 67.28C 135.035 66.32 132.635 64.928 130.619 63.104L 132.851 59.792C 134.963 61.52 137.099 62.816 139.259 63.68C 141.467 64.544 143.819 64.976 146.315 64.976C 149.339 64.976 151.739 64.376 153.515 63.176C 155.339 61.928 156.251 60.176 156.251 57.92C 156.251 56.864 156.011 56 155.531 55.328C 155.051 54.608 154.331 53.984 153.371 53.456C 152.459 52.928 151.283 52.472 149.843 52.088C 148.451 51.656 146.819 51.224 144.947 50.792C 142.787 50.264 140.915 49.736 139.331 49.208C 137.747 48.68 136.427 48.08 135.371 47.408C 134.363 46.736 133.595 45.92 133.067 44.96C 132.587 43.952 132.347 42.704 132.347 41.216C 132.347 39.344 132.707 37.688 133.427 36.248C 134.195 34.808 135.203 33.632 136.451 32.72C 137.747 31.76 139.235 31.04 140.915 30.56C 142.643 30.08 144.467 29.84 146.387 29.84C 149.267 29.84 151.883 30.32 154.235 31.28C 156.587 32.192 158.483 33.416 159.923 34.952L 157.547 37.832C 156.155 36.392 154.451 35.312 152.435 34.592C 150.467 33.872 148.403 33.512 146.243 33.512C 144.947 33.512 143.747 33.656 142.643 33.944C 141.539 34.184 140.555 34.592 139.691 35.168C 138.875 35.744 138.227 36.488 137.747 37.4C 137.267 38.264 137.027 39.296 137.027 40.496C 137.027 41.504 137.195 42.32 137.531 42.944C 137.867 43.568 138.419 44.12 139.187 44.6C 139.955 45.032 140.915 45.44 142.067 45.824C 143.267 46.16 144.707 46.52 146.387 46.904C 148.787 47.48 150.899 48.056 152.723 48.632C 154.547 49.208 156.059 49.88 157.259 50.648C 158.507 51.416 159.443 52.352 160.067 53.456C 160.691 54.56 161.003 55.904 161.003 57.488C 161.003 60.944 159.683 63.68 157.043 65.696C 154.403 67.712 150.851 68.72 146.387 68.72ZM 200.553 68L 195.657 68L 195.657 47.048C 195.657 42.776 194.913 39.584 193.425 37.472C 191.985 35.36 189.849 34.304 187.017 34.304C 185.625 34.304 184.233 34.592 182.841 35.168C 181.497 35.696 180.225 36.44 179.025 37.4C 177.825 38.36 176.769 39.488 175.857 40.784C 174.993 42.08 174.345 43.496 173.913 45.032L 173.913 68L 169.017 68L 169.017 15.44L 173.913 15.44L 173.913 38.984C 175.401 36.152 177.465 33.92 180.105 32.288C 182.745 30.656 185.601 29.84 188.673 29.84C 190.833 29.84 192.657 30.248 194.145 31.064C 195.633 31.832 196.857 32.936 197.817 34.376C 198.777 35.768 199.473 37.472 199.905 39.488C 200.337 41.456 200.553 43.64 200.553 46.04L 200.553 68ZM 210.994 68L 210.994 30.488L 215.89 30.488L 215.89 68L 210.994 68ZM 210.994 22.64L 210.994 15.44L 215.89 15.44L 215.89 22.64L 210.994 22.64ZM 258.209 68L 253.313 68L 253.313 47.048C 253.313 42.584 252.641 39.344 251.297 37.328C 250.001 35.312 247.985 34.304 245.249 34.304C 243.809 34.304 242.369 34.568 240.929 35.096C 239.489 35.624 238.145 36.368 236.897 37.328C 235.697 38.288 234.617 39.44 233.657 40.784C 232.697 42.08 232.001 43.496 231.569 45.032L 231.569 68L 226.673 68L 226.673 30.488L 231.137 30.488L 231.137 38.984C 232.673 36.248 234.857 34.04 237.689 32.36C 240.569 30.68 243.689 29.84 247.049 29.84C 249.113 29.84 250.865 30.224 252.305 30.992C 253.745 31.76 254.897 32.84 255.761 34.232C 256.625 35.624 257.249 37.328 257.633 39.344C 258.017 41.36 258.209 43.592 258.209 46.04L 258.209 68Z"/>
</defs>
</svg>
